<mxfile host="app.diagrams.net" modified="2024-04-23T02:12:49.101Z" agent="Mozilla/5.0 (X11; Linux x86_64) AppleWebKit/537.36 (KHTML, like Gecko) Chrome/123.0.0.0 Safari/537.36" version="24.2.8" etag="fe98o7vbfcOH-syjbjNP" type="github">
  <diagram name="Page-1" id="R83kdUnYyPJmHdB97pe4">
    <mxGraphModel>
      <root>
        <mxCell id="0" />
        <mxCell id="1" parent="0" />
      </root>
    </mxGraphModel>
  </diagram>
</mxfile>
